<svg width="590" height="685" viewBox="0 0 590 685" fill="none" xmlns="http://www.w3.org/2000/svg">
<path d="M589.413 420.655L581.185 456.729C551.377 587.398 434.676 685 295.056 685C155.436 685 38.7339 587.398 8.92676 456.729L0.698242 420.655L72.8447 404.198L81.0732 440.271C103.391 538.111 190.811 611 295.056 611C399.3 611 486.72 538.111 509.038 440.271L517.267 404.198L589.413 420.655Z" fill="white"/>
<path d="M111.556 392.501C111.556 324.86 148.083 265.763 202.347 233.973C257.916 198.069 283.584 127.298 260.578 62.2607L260.024 60.7197L247.304 25.9756L316.793 0.535156L329.514 35.2803L330.348 37.5977C365.088 135.807 326.099 242.655 241.681 296.661L240.984 297.106L240.269 297.521C207.527 316.461 185.556 351.898 185.556 392.501C185.556 453.095 234.476 502 294.556 502C354.636 502 403.556 453.095 403.556 392.501C403.556 353.904 383.709 319.984 353.614 300.447L352.174 299.528L320.829 279.869L360.147 217.179L391.492 236.838C443.132 269.226 477.556 326.842 477.556 392.501C477.556 493.726 395.743 576 294.556 576C193.369 576 111.556 493.726 111.556 392.501Z" fill="white"/>
<path d="M367.556 391.5C367.556 431.541 335.096 464 295.056 464C255.015 464 222.556 431.541 222.556 391.5C222.556 351.459 255.015 319 295.056 319C335.096 319 367.556 351.459 367.556 391.5Z" fill="white"/>
</svg>
