<svg width="1024" height="1024" viewBox="0 0 1024 1024" fill="none" xmlns="http://www.w3.org/2000/svg">
<rect width="1024" height="1024" fill="#666666"/>
<path d="M806.357 589.888L798.129 625.961C768.322 756.631 651.62 854.232 512 854.232C372.38 854.232 255.678 756.631 225.871 625.961L217.643 589.888L289.789 573.431L298.018 609.504C320.336 707.343 407.756 780.232 512 780.232C616.244 780.232 703.664 707.343 725.982 609.504L734.211 573.431L806.357 589.888Z" fill="white"/>
<path d="M328.5 561.733C328.5 494.092 365.027 434.996 419.291 403.205C474.86 367.302 500.529 296.531 477.522 231.493L476.969 229.952L464.248 195.208L533.737 169.768L546.458 204.513L547.292 206.83C582.033 305.039 543.044 411.887 458.625 465.894L457.929 466.339L457.213 466.753C424.471 485.693 402.5 521.131 402.5 561.733C402.5 622.327 451.42 671.232 511.5 671.232C571.58 671.232 620.5 622.327 620.5 561.733C620.5 523.137 600.653 489.216 570.559 469.68L569.118 468.761L537.773 449.102L577.092 386.411L608.437 406.07C660.076 438.458 694.5 496.074 694.5 561.733C694.5 662.958 612.687 745.232 511.5 745.232C410.313 745.232 328.5 662.958 328.5 561.733Z" fill="white"/>
<path d="M584.5 560.732C584.5 600.773 552.041 633.232 512 633.232C471.959 633.232 439.5 600.773 439.5 560.732C439.5 520.692 471.959 488.232 512 488.232C552.041 488.232 584.5 520.692 584.5 560.732Z" fill="white"/>
</svg>
